<svg width="40" height="49" viewBox="0 0 40 49" fill="none" xmlns="http://www.w3.org/2000/svg">
<path d="M20 42.6215L30.9993 31.4589C37.0742 25.2942 37.0742 15.2989 30.9993 9.13398C24.9246 2.96911 15.0754 2.96911 9.00054 9.13398C2.92573 15.2989 2.92573 25.2942 9.00054 31.4589L20 42.6215ZM20 49L5.85786 34.6484C-1.95262 26.7219 -1.95262 13.871 5.85786 5.94471C13.6683 -1.98157 26.3315 -1.98157 34.1422 5.94471C41.9526 13.871 41.9526 26.7219 34.1422 34.6484L20 49ZM20 24.8068C22.4546 24.8068 24.4444 22.7875 24.4444 20.2965C24.4444 17.8055 22.4546 15.7862 20 15.7862C17.5453 15.7862 15.5555 17.8055 15.5555 20.2965C15.5555 22.7875 17.5453 24.8068 20 24.8068ZM20 29.3171C15.0908 29.3171 11.1111 25.2784 11.1111 20.2965C11.1111 15.3145 15.0908 11.2758 20 11.2758C24.9091 11.2758 28.8888 15.3145 28.8888 20.2965C28.8888 25.2784 24.9091 29.3171 20 29.3171Z" fill="#206533"/>
</svg>
